<svg xmlns="http://www.w3.org/2000/svg" xmlns:xlink="http://www.w3.org/1999/xlink" fill="none" version="1.1" width="119" height="31.1505126953125" viewBox="0 0 119 31.1505126953125"><g style="mix-blend-mode:passthrough"><g><path d="M18.7299,20.2775Q17.4898,13.8401,9.9437,8.32098Q10.2733,7.90245,10.678,7.46791Q11.054,7.06414,11.2834,6.80704Q11.4178,6.65642,11.6418,6.40981Q12.5405,5.42046,13.2332,4.1175Q13.8477,2.9619,14.2462,1.00895Q14.3515,0.492964,14.427,0Q16.2128,1.55284,17.0981,2.8497Q17.9777,4.13837,18.765,6.37355Q19.2924,7.80795,19.3793,8.37962C19.4351,8.6411,19.4657,8.89523,19.625,9.10256C20.0243,9.62218,20.7692,9.71973,21.2888,9.32046Q21.307,9.30652,21.363,9.26477Q22.3902,8.49941,23.0399,7.5246Q23.1688,7.89408,23.3226,8.35617Q23.9999,10.3919,24,12.5416Q24,16.1209,22.5217,18.1885Q21.1734,20.0742,18.7299,20.2775ZM16.3261,8.99448C16.6537,8.99448,16.9193,8.72886,16.9193,8.40121C16.9193,8.07357,16.6537,7.80795,16.3261,7.80795C15.9984,7.80795,15.7328,8.07357,15.7328,8.40121C15.7328,8.72886,15.9984,8.99448,16.3261,8.99448ZM8.29509,10.0568Q15.2227,15.0366,16.3721,20.6059Q14.3185,20.9537,13.1101,21.003Q10.8638,21.0945,9.04556,20.4513Q6.33864,19.4938,3.22821,19.6969Q1.51313,19.8089,0.290651,20.2789Q1.57114,14.8901,8.29509,10.0568ZM2.42209,28.7178Q0.149756,26.4455,0,23.2939C0.011139,23.2802,0.0219706,23.2663,0.0325119,23.2521L0.0325119,23.2521Q0.788031,22.2344,3.38286,22.0649Q6.00685,21.8935,8.25419,22.6885Q10.5035,23.4842,13.2067,23.3741Q14.5081,23.321,16.5999,22.9736Q16.5551,26.3307,14.1681,28.7178Q11.7354,31.1505,8.29509,31.1505Q4.85475,31.1505,2.42209,28.7178Z" fill-rule="evenodd" fill="#FFFFFF" fill-opacity="1"/></g><g style="opacity:0.8999999761581421;mix-blend-mode:passthrough"><path d="M33.61719,9.125L35.50977,9.125L35.68555,18.3066Q35.70312,18.7695,35.70898,19.2969Q35.7207,19.824199999999998,35.7207,20.3398Q35.86719,19.8477,36.04297,19.273400000000002Q36.22461,18.699199999999998,36.38867,18.1191L38.96094,9.125L40.88867,9.125L41.07031,18.3066Q41.08789,18.7695,41.09375,19.291Q41.10547,19.8066,41.10547,20.3398Q41.24609,19.8477,41.42773,19.273400000000002Q41.60938,18.699199999999998,41.77344,18.1191L44.3457,9.125L46.2734,9.125L41.57422,23.375L39.82812,23.375L39.44727,14.83789Q39.42969,14.48633,39.43555,13.96484Q39.44727,13.44336,39.46484,12.89844Q39.32422,13.42578,39.17773,13.92969Q39.03711,14.43359,38.92578,14.76758L36.18945,23.375L34.44336,23.375L33.61719,9.125ZM51.6055,23.375L49.9473,23.375L50.041,22.2734Q49.6426,22.7773,49.1445,23.0762Q48.6523,23.375,48.113299999999995,23.375Q47.2461,23.375,46.625,22.8242Q46.0098,22.2676,45.7754,21.0137Q45.541,19.7598,45.8457,17.668Q46.2207,15.0371,47.2168,13.77148Q48.2188,12.5,49.537099999999995,12.5Q50.738299999999995,12.5,51.2832,13.52539L51.4062,12.5L53.1523,12.5L51.6055,23.375ZM47.627,17.8613Q47.4805,18.957,47.4688,19.8477Q47.4629,20.7324,47.7148,21.2539Q47.9668,21.7754,48.582,21.7754Q49.0156,21.7754,49.3613,21.4766Q49.712900000000005,21.1777,49.9648,20.7031Q50.2168,20.2227,50.363299999999995,19.689500000000002L50.9375,15.875Q50.9551,15.0898,50.6211,14.59766Q50.293,14.09961,49.6953,14.09961Q49.1387,14.09961,48.7227,14.61523Q48.3125,15.125,48.043,15.9805Q47.7734,16.835900000000002,47.627,17.8613ZM54.0781,20.2461L55.050799999999995,14.09961L53.8789,14.09961L54.113299999999995,12.5L55.3027,12.5L55.7715,9.59961L57.4238,9.59961L56.9727,12.5L59.011700000000005,12.5L58.7773,14.09961L56.7207,14.09961L55.824200000000005,20.0527Q55.6777,21.0312,55.8125,21.5059Q55.9473,21.9746,56.4512,21.9746Q56.8848,21.9746,57.3711,21.6348L57.9277,23.0938Q57.3711,23.3457,56.7676,23.4863Q56.164100000000005,23.6328,55.6074,23.5566Q55.050799999999995,23.4863,54.6406,23.1406Q54.2363,22.7949,54.0664,22.0918Q53.8965,21.3887,54.0781,20.2461ZM65.66210000000001,20.2695Q65.2285,21.7402,64.27340000000001,22.5605Q63.324200000000005,23.375,62.0293,23.375Q60.6582,23.375,60.0078,22.6602Q59.363299999999995,21.9395,59.2461,20.6973Q59.1289,19.4551,59.3281,17.8613Q59.5449,16.2793,60.0195,15.0723Q60.4941,13.86523,61.337900000000005,13.18555Q62.1875,12.5,63.4473,12.5Q64.7656,12.5,65.4102,13.18555Q66.06049999999999,13.86523,66.1777,15.1426Q66.2949,16.4199,66.02539999999999,18.224600000000002L60.9805,18.224600000000002Q60.875,19.1445,60.8926,19.959Q60.9102,20.7676,61.1973,21.2715Q61.4844,21.7754,62.1875,21.7754Q63.4824,21.7754,64.0625,20.0352L65.66210000000001,20.2695ZM63.3066,14.09961Q62.5332,14.09961,62.0293,14.75Q61.525400000000005,15.3945,61.2148,16.625L64.4023,16.625Q64.4727,15.9043,64.4199,15.3359Q64.3672,14.76172,64.1035,14.43359Q63.8457,14.09961,63.3066,14.09961ZM68.6738,23.375L66.96289999999999,23.375L68.5156,12.5L70.2207,12.5L70.0273,13.86523Q70.5488,13.13281,71.2637,12.816410000000001Q71.9844,12.5,72.7812,12.5L72.5469,14.16992Q71.5566,14.04688,70.7422,14.66211Q69.9336,15.2715,69.6465,16.601599999999998L68.6738,23.375ZM74.17580000000001,23.375L72.32419999999999,23.375L74.3574,9.125L80.83789999999999,9.125L80.6211,10.72461L75.97460000000001,10.72461L75.3477,15.125L79.2559,15.125L79.03909999999999,16.724600000000002L75.0957,16.724600000000002L74.17580000000001,23.375ZM81.459,23.375L79.71289999999999,23.375L81.8574,8.375L83.6035,8.375L81.459,23.375ZM89.8555,23.375L88.1973,23.375L88.291,22.2734Q87.8926,22.7773,87.3945,23.0762Q86.9023,23.375,86.36330000000001,23.375Q85.4961,23.375,84.875,22.8242Q84.2598,22.2676,84.02539999999999,21.0137Q83.791,19.7598,84.0957,17.668Q84.4707,15.0371,85.4668,13.77148Q86.4688,12.5,87.78710000000001,12.5Q88.98830000000001,12.5,89.5332,13.52539L89.6562,12.5L91.4023,12.5L89.8555,23.375ZM85.87700000000001,17.8613Q85.7305,18.957,85.7188,19.8477Q85.71289999999999,20.7324,85.9648,21.2539Q86.2168,21.7754,86.832,21.7754Q87.2656,21.7754,87.6113,21.4766Q87.96289999999999,21.1777,88.2148,20.7031Q88.4668,20.2227,88.61330000000001,19.689500000000002L89.1875,15.875Q89.2051,15.0898,88.8711,14.59766Q88.543,14.09961,87.9453,14.09961Q87.3887,14.09961,86.9727,14.61523Q86.5625,15.125,86.293,15.9805Q86.02340000000001,16.835900000000002,85.87700000000001,17.8613ZM93.459,23.375L91.71289999999999,23.375L93.2832,12.5L94.918,12.5L94.8301,13.67773Q95.2812,13.04492,95.8262,12.77539Q96.377,12.5,96.8984,12.5Q97.6191,12.5,98.1641,12.875Q98.7148,13.24414,98.8789,14.13477Q99.3477,13.24414,99.9688,12.875Q100.5898,12.5,101.1992,12.5Q101.8496,12.5,102.3594,12.80469Q102.875,13.10938,103.1152,13.79492Q103.3613,14.48047,103.1797,15.6523L102.0664,23.375L100.3027,23.375L101.3984,15.957Q101.668,14.09961,100.4785,14.09961Q99.8867,14.09961,99.4531,14.64453Q99.0254,15.1836,98.8262,16.039099999999998L97.7656,23.375L95.9961,23.375L97.0977,15.957Q97.3672,14.09961,96.1777,14.09961Q95.6035,14.09961,95.1699,14.62695Q94.7363,15.1484,94.543,15.9746L93.459,23.375ZM110.6621,20.2695Q110.2285,21.7402,109.2734,22.5605Q108.3242,23.375,107.0293,23.375Q105.6582,23.375,105.0078,22.6602Q104.3633,21.9395,104.2461,20.6973Q104.1289,19.4551,104.3281,17.8613Q104.5449,16.2793,105.0195,15.0723Q105.4941,13.86523,106.3379,13.18555Q107.1875,12.5,108.4473,12.5Q109.7656,12.5,110.4102,13.18555Q111.0605,13.86523,111.1777,15.1426Q111.2949,16.4199,111.0254,18.224600000000002L105.9805,18.224600000000002Q105.875,19.1445,105.8926,19.959Q105.9102,20.7676,106.1973,21.2715Q106.4844,21.7754,107.1875,21.7754Q108.4824,21.7754,109.0625,20.0352L110.6621,20.2695ZM108.3066,14.09961Q107.5332,14.09961,107.0293,14.75Q106.5254,15.3945,106.2148,16.625L109.4023,16.625Q109.4727,15.9043,109.4199,15.3359Q109.3672,14.76172,109.1035,14.43359Q108.8457,14.09961,108.3066,14.09961ZM113.4922,20.4277Q113.5332,21.0898,113.9375,21.4355Q114.3418,21.7754,114.8633,21.7754Q115.2793,21.7754,115.625,21.5293Q115.9766,21.2773,116.0703,20.6973Q116.1758,20.1289,115.959,19.666Q115.7422,19.2031,115.3379,18.787100000000002Q114.9336,18.3652,114.4766,17.9434Q114.0195,17.5215,113.6387,17.0469Q113.2637,16.5664,113.0879,15.957Q112.918,15.3477,113.0996,14.57422Q113.2637,13.83008,113.7031,13.37891Q114.1426,12.92188,114.7461,12.71094Q115.3496,12.5,115.9766,12.5Q116.6973,12.5,117.3359,12.81055Q117.9746,13.12109,118.3496,13.77734Q118.7305,14.43359,118.6426,15.4824L117.0957,15.4824Q117.1309,14.75586,116.7852,14.42773Q116.4453,14.09961,115.9766,14.09961Q115.6016,14.09961,115.2852,14.30469Q114.9688,14.50977,114.8633,15.0547Q114.7754,15.4941,114.998,15.8984Q115.2207,16.2969,115.6074,16.689500000000002Q115.9941,17.082,116.4453,17.5098Q116.8965,17.9316,117.2715,18.4297Q117.6523,18.9277,117.8398,19.525399999999998Q118.0332,20.1172,117.8867,20.8848Q117.7402,21.7168,117.2539,22.2734Q116.7734,22.8242,116.1055,23.0996Q115.4375,23.375,114.7168,23.375Q113.9785,23.375,113.3223,23.0527Q112.666,22.7363,112.2617,22.0859Q111.8574,21.4297,111.8574,20.4277L113.4922,20.4277Z" fill="#FFFFFF" fill-opacity="1"/></g></g></svg>