<svg xmlns="http://www.w3.org/2000/svg" xmlns:xlink="http://www.w3.org/1999/xlink" fill="none" version="1.1" width="33.68067169189453" height="42.99998092651367" viewBox="0 0 33.68067169189453 42.99998092651367"><g><path d="M26.2848,27.991Q24.5445,19.1048,13.9546,11.4862Q14.4172,10.9085,14.9851,10.3087Q15.5128,9.7513,15.8347,9.3964Q16.0233,9.18849,16.3377,8.84807Q17.5989,7.48237,18.571,5.68377Q19.4333,4.08859,19.9926,1.39275Q20.1403,0.680485,20.2463,0Q22.7524,2.14353,23.9948,3.93371Q25.2292,5.71258,26.3341,8.79801Q27.0742,10.7781,27.1962,11.5672C27.2745,11.9281,27.3174,12.2789,27.541,12.5651C28.1013,13.2824,29.1467,13.4171,29.8759,12.8659Q29.9014,12.8467,29.98,12.789Q31.4215,11.7325,32.3333,10.3869Q32.5142,10.8969,32.73,11.5348Q33.6805,14.3449,33.6807,17.3124Q33.6807,22.2532,31.6061,25.1073Q29.7139,27.7103,26.2848,27.991ZM22.9114,12.4159C23.3712,12.4159,23.7439,12.0493,23.7439,11.597C23.7439,11.1447,23.3712,10.7781,22.9114,10.7781C22.4515,10.7781,22.0788,11.1447,22.0788,11.597C22.0788,12.0493,22.4515,12.4159,22.9114,12.4159ZM11.641,13.8824Q21.3629,20.7564,22.976,28.4443Q20.094,28.9244,18.3982,28.9924Q15.2458,29.1187,12.6942,28.2309Q8.8954,26.9091,4.53034,27.1895Q2.12347,27.3441,0.407888,27.9929Q2.20488,20.5542,11.641,13.8824ZM3.39907,39.6419Q0.210162,36.5052,0,32.1548C0.015632,32.1359,0.0308327,32.1167,0.0456259,32.0971Q1.10589,30.6922,4.74738,30.4583Q8.42978,30.2217,11.5836,31.3191Q14.7402,32.4175,18.5338,32.2655Q20.3601,32.1922,23.2957,31.7126Q23.2328,36.3468,19.883,39.6419Q16.469,43,11.641,43Q6.81297,43,3.39907,39.6419Z" fill-rule="evenodd" fill="#FFFFFF" fill-opacity="1"/></g></svg>